<svg width="20" height="20" viewBox="0 0 20 20" fill="none" xmlns="http://www.w3.org/2000/svg">
<path d="M10 0C11.5913 0 13.1174 0.653116 14.2426 1.81567C15.3679 2.97822 16 4.55498 16 6.19908V7.23226H20V9.29862H18.833L18.076 18.683C18.0552 18.9412 17.9413 19.1819 17.7568 19.3573C17.5723 19.5328 17.3308 19.6303 17.08 19.6304H2.92C2.66925 19.6303 2.4277 19.5328 2.24322 19.3573C2.05875 19.1819 1.94481 18.9412 1.924 18.683L1.166 9.29862H0V7.23226H4V6.19908C4 4.55498 4.63214 2.97822 5.75736 1.81567C6.88258 0.653116 8.4087 0 10 0ZM16.826 9.29862H3.173L3.84 17.5641H16.159L16.826 9.29862ZM11 11.365V15.4977H9V11.365H11ZM7 11.365V15.4977H5V11.365H7ZM15 11.365V15.4977H13V11.365H15ZM10 2.06636C8.97376 2.06636 7.98677 2.47388 7.24319 3.20464C6.4996 3.9354 6.05631 4.93348 6.005 5.99245L6 6.19908V7.23226H14V6.19908C14 5.13879 13.6056 4.11906 12.8983 3.3508C12.191 2.58254 11.225 2.12454 10.2 2.07153L10 2.06636Z" fill="white"/>
</svg>
