<svg width="21" height="23" viewBox="0 0 21 23" fill="none" xmlns="http://www.w3.org/2000/svg">
<path d="M13.9995 16.9283L15.8088 15.119C16.051 14.8768 16.3589 14.7109 16.6944 14.642C17.03 14.5731 17.3784 14.6041 17.6964 14.7313L19.8999 15.6134C20.2246 15.7433 20.503 15.9676 20.6991 16.2572C20.8952 16.5469 21 16.8887 21 17.2385V21.2456C21.0006 21.4838 20.9525 21.7195 20.8588 21.9385C20.7651 22.1574 20.6277 22.355 20.455 22.519C20.2823 22.683 20.0779 22.81 19.8544 22.8923C19.6309 22.9746 19.393 23.0104 19.1552 22.9975C3.7099 22.0364 0.590479 8.95449 0.0113422 3.945C-0.0167071 3.7001 0.0074108 3.45203 0.0821098 3.21711C0.156809 2.9822 0.280396 2.76576 0.444742 2.58203C0.609089 2.39831 0.810471 2.25146 1.03564 2.15114C1.26081 2.05083 1.50467 1.99932 1.75118 2.00001H5.6872C6.037 2 6.37878 2.10479 6.66845 2.30088C6.95812 2.49697 7.1824 2.77536 7.31234 3.10012L8.19357 5.30359C8.32074 5.62165 8.35179 5.97003 8.28287 6.30557C8.21396 6.64111 8.0481 6.94905 7.80586 7.19124L5.99656 9.00053C5.99656 9.00053 6.99975 16.0536 13.9995 16.9283Z" fill="#AA6FD8"/>
<path d="M16.9605 8.07718H15.345C15.3444 7.43472 15.0889 6.81875 14.6346 6.36446C14.1803 5.91016 13.5643 5.65466 12.9219 5.65402V4.03857C13.9926 4.03986 15.0191 4.46576 15.7762 5.22287C16.5333 5.97998 16.9592 7.00647 16.9605 8.07718V8.07718Z" fill="#AA6FD8"/>
<path d="M20.1914 8.07724H18.5759C18.5742 6.57821 17.978 5.14108 16.918 4.08111C15.858 3.02114 14.4209 2.42489 12.9219 2.42318V0.807739C14.8492 0.809877 16.697 1.57645 18.0598 2.93929C19.4227 4.30212 20.1892 6.1499 20.1914 8.07724V8.07724Z" fill="#AA6FD8"/>
</svg>
