<svg width="9" height="18" viewBox="0 0 9 18" fill="none" xmlns="http://www.w3.org/2000/svg">
<path d="M3.9413 0.276V2.976H5.2733V0.276H3.9413ZM3.9413 14.136V17.016H5.2733V14.136H3.9413ZM7.1993 5.748L8.4413 4.92C8.2733 4.488 8.0093 4.068 7.6493 3.66C7.3013 3.24 6.8693 2.898 6.3533 2.634C5.8373 2.358 5.2373 2.22 4.5533 2.22C3.8693 2.22 3.2513 2.358 2.6993 2.634C2.1473 2.898 1.7093 3.264 1.3853 3.732C1.0613 4.188 0.899297 4.704 0.899297 5.28C0.899297 5.856 1.0013 6.348 1.2053 6.756C1.4213 7.164 1.6913 7.512 2.0153 7.8C2.3393 8.076 2.6813 8.304 3.0413 8.484C3.4133 8.664 3.7553 8.808 4.0673 8.916C4.5473 9.084 5.0093 9.282 5.4533 9.51C5.9093 9.738 6.2813 10.026 6.5693 10.374C6.8693 10.722 7.0193 11.166 7.0193 11.706C7.0193 12.126 6.9353 12.492 6.7673 12.804C6.6113 13.104 6.3713 13.338 6.0473 13.506C5.7353 13.662 5.3393 13.74 4.8593 13.74C4.3433 13.74 3.8813 13.626 3.4733 13.398C3.0773 13.17 2.7233 12.846 2.4113 12.426C2.0993 12.006 1.8173 11.508 1.5653 10.932L0.269297 11.706C0.533297 12.402 0.881297 13.008 1.3133 13.524C1.7573 14.04 2.2733 14.448 2.8613 14.748C3.4493 15.036 4.0853 15.18 4.7693 15.18C5.6093 15.18 6.3113 15.03 6.8753 14.73C7.4393 14.43 7.8653 14.01 8.1533 13.47C8.4533 12.918 8.6033 12.288 8.6033 11.58C8.6033 11.004 8.5013 10.512 8.2973 10.104C8.0933 9.684 7.8293 9.336 7.5053 9.06C7.1813 8.772 6.8333 8.532 6.4613 8.34C6.0893 8.148 5.7413 7.992 5.4173 7.872C4.9133 7.68 4.4393 7.482 3.9953 7.278C3.5513 7.062 3.1913 6.81 2.9153 6.522C2.6393 6.222 2.5013 5.844 2.5013 5.388C2.5013 5.016 2.5733 4.704 2.7173 4.452C2.8613 4.2 3.0833 4.008 3.3833 3.876C3.6953 3.744 4.0913 3.678 4.5713 3.678C5.0393 3.678 5.4353 3.78 5.7593 3.984C6.0833 4.176 6.3593 4.434 6.5873 4.758C6.8153 5.07 7.0193 5.4 7.1993 5.748Z" fill="#AA6FD8"/>
</svg>
