<svg width="29" height="28" viewBox="0 0 29 28" fill="none" xmlns="http://www.w3.org/2000/svg">
<path d="M6.0445 6.37654H6.75405L6.51536 5.70834C6.35036 5.24644 6.27283 4.81954 6.27283 4.42469C6.27283 3.30953 6.65255 2.39007 7.41522 1.63413C8.18487 0.871267 9.07827 0.5 10.1194 0.5C11.4887 0.5 12.559 1.05995 13.3731 2.21657L14.0478 3.24677L14.4464 3.8555L14.8717 3.2651L15.6188 2.22806L15.6241 2.22069L15.6292 2.21313C16.3975 1.06045 17.4419 0.5 18.8126 0.5C19.9044 0.5 20.8049 0.87485 21.5461 1.6294C22.2878 2.38439 22.6593 3.30532 22.6593 4.42469C22.6593 4.81954 22.5817 5.24644 22.4167 5.70834L22.178 6.37654H22.8876H26.0796C26.7618 6.37654 27.3234 6.61168 27.7944 7.09113C28.2657 7.57096 28.5 8.14683 28.5 8.84938V25.0272C28.5 25.7297 28.2657 26.3056 27.7944 26.7854C27.3234 27.2649 26.7618 27.5 26.0796 27.5H2.92037C2.23816 27.5 1.67662 27.2649 1.20563 26.7854C0.734275 26.3056 0.5 25.7297 0.5 25.0272V8.84938C0.5 8.14683 0.734275 7.57096 1.20563 7.09113C1.67662 6.61168 2.23816 6.37654 2.92037 6.37654H6.0445ZM26.0796 25.5272H26.5796V25.0272V22.1235V21.6235H26.0796H2.92037H2.42037V22.1235V25.0272V25.5272H2.92037H26.0796ZM26.0796 18.1988H26.5796V17.6988V8.84938V8.34938H26.0796H18.7447H17.7683L18.339 9.14164L21.0364 12.8859L19.4704 14.0245L16.3675 9.66559L16.3676 9.66552L16.3611 9.65678L14.867 7.65184L14.4566 7.10125L14.0586 7.66079L12.6338 9.66374L9.46959 14.0216L7.95964 12.8914L10.661 9.14164L11.2317 8.34938H10.2553H2.92037H2.42037V8.84938V17.6988V18.1988H2.92037H26.0796ZM18.8466 2.4037C18.3147 2.4037 17.85 2.61705 17.4712 3.00269C17.0923 3.38836 16.8864 3.85724 16.8864 4.39012C16.8864 4.92301 17.0923 5.39189 17.4712 5.77755C17.85 6.1632 18.3147 6.37654 18.8466 6.37654C19.3785 6.37654 19.8432 6.1632 20.222 5.77755C20.6009 5.39189 20.8068 4.92301 20.8068 4.39012C20.8068 3.85724 20.6009 3.38836 20.222 3.00269C19.8432 2.61704 19.3785 2.4037 18.8466 2.4037ZM10.1534 2.4037C9.62145 2.4037 9.15682 2.61704 8.77797 3.00269C8.39912 3.38836 8.19321 3.85723 8.19321 4.39012C8.19321 4.92301 8.39912 5.39189 8.77797 5.77755C9.15682 6.1632 9.62145 6.37654 10.1534 6.37654C10.6853 6.37654 11.15 6.1632 11.5288 5.77755C11.9077 5.39189 12.1136 4.92301 12.1136 4.39012C12.1136 3.85723 11.9077 3.38836 11.5288 3.00269C11.15 2.61704 10.6853 2.4037 10.1534 2.4037Z" fill="#AA6FD8" stroke="#AA6FD8"/>
</svg>
