<svg width="20" height="19" viewBox="0 0 20 19" fill="none" xmlns="http://www.w3.org/2000/svg">
<path d="M9.9766 2.70487L9.50861 2.04619L9.50859 2.04617C8.88398 1.22567 8.04074 0.815418 6.97892 0.815418C6.16693 0.815418 5.46424 1.08648 4.87086 1.6286C4.27747 2.17072 3.98076 2.83741 3.98076 3.62863C3.98076 3.92148 4.04314 4.22896 4.16789 4.55104H2.01405C1.45187 4.55104 0.975556 4.73421 0.585138 5.10054C0.194719 5.46687 -0.0005 5.91381 -0.0005 6.44133V16.7253C-0.0005 17.2528 0.194719 17.6998 0.585138 18.0661C0.975556 18.4324 1.45187 18.6156 2.01405 18.6156H17.9859C18.5481 18.6156 19.0244 18.4324 19.4149 18.0661C19.8053 17.6998 20.0005 17.2528 20.0005 16.7253V6.44133C20.0005 5.91381 19.8053 5.46687 19.4149 5.10054C19.0244 4.73421 18.5481 4.55104 17.9859 4.55104H15.7853C15.91 4.22896 15.9724 3.92148 15.9724 3.62863C15.9724 2.83741 15.6835 2.17073 15.1057 1.6286C14.528 1.08648 13.8174 0.815418 12.9742 0.815418C11.9124 0.815418 11.0848 1.22567 10.4914 2.04618L9.9766 2.70487ZM14.9845 9.07255L12.9284 6.44183H17.9854V12.0662H2.01455V6.44183H7.07157L5.01132 9.07794L5.01171 9.07825L5.0121 9.07855L5.01834 9.08343L6.60393 10.1774L6.59973 10.1835L6.60461 10.1773L8.99337 7.14482L8.99297 7.14451L8.99337 7.14482L9.97659 5.87081L11.0066 7.14482L11.0066 7.14482L13.3485 10.1773L13.343 10.1815L13.3492 10.1774L14.9886 9.07866L14.9883 9.07825L14.988 9.07783L14.9845 9.07255ZM12.2954 2.94779C12.4983 2.75743 12.7324 2.66226 12.9977 2.66226C13.2629 2.66226 13.497 2.75743 13.6999 2.94779C13.9028 3.13815 14.0042 3.35776 14.0042 3.60665C14.0042 3.85554 13.9028 4.07515 13.6999 4.26551C13.497 4.45588 13.2629 4.55104 12.9977 4.55104C12.7324 4.55104 12.4983 4.45588 12.2954 4.26551C12.0925 4.07515 11.9911 3.85554 11.9911 3.60665C11.9911 3.35776 12.0925 3.13815 12.2954 2.94779ZM6.30011 2.94779C6.50299 2.75743 6.73706 2.66226 7.00234 2.66226C7.26763 2.66226 7.5017 2.75743 7.70458 2.94779C7.90745 3.13815 8.00887 3.35776 8.00887 3.60665C8.00887 3.85554 7.90745 4.07515 7.70458 4.26551C7.5017 4.45588 7.26763 4.55104 7.00234 4.55104C6.73706 4.55104 6.50299 4.45588 6.30011 4.26551C6.09723 4.07515 5.99582 3.85554 5.99582 3.60665C5.99582 3.35776 6.09723 3.13815 6.30011 2.94779ZM17.9854 14.88V16.7248H2.01455V14.88H17.9854Z" fill="#AA6FD8" stroke="#AA6FD8" stroke-width="0.001"/>
</svg>
