<svg width="31" height="31" viewBox="0 0 31 31" fill="none" xmlns="http://www.w3.org/2000/svg">
<path d="M2.44972 16.9504H3.89975V27.1006C3.89975 28.7 5.20043 30.0007 6.79981 30.0007H24.2002C25.7996 30.0007 27.1002 28.7 27.1002 27.1006V16.9504H28.5503C28.837 16.9503 29.1173 16.8653 29.3557 16.7059C29.5941 16.5466 29.7799 16.3201 29.8896 16.0552C29.9994 15.7903 30.0281 15.4988 29.9722 15.2176C29.9162 14.9363 29.7782 14.678 29.5755 14.4752L16.5252 1.42491C16.3906 1.29013 16.2308 1.18321 16.0549 1.11026C15.879 1.03731 15.6904 0.999756 15.5 0.999756C15.3096 0.999756 15.121 1.03731 14.9451 1.11026C14.7692 1.18321 14.6094 1.29013 14.4748 1.42491L1.42455 14.4752C1.22182 14.678 1.08377 14.9363 1.02785 15.2176C0.971921 15.4988 1.00064 15.7903 1.11036 16.0552C1.22008 16.3201 1.40589 16.5466 1.64429 16.7059C1.88269 16.8653 2.16298 16.9503 2.44972 16.9504ZM15.5 4.50042L24.2002 13.2006V19.8505L24.2016 27.1006H6.79981V13.2006L15.5 4.50042Z" fill="#AA6FD8" stroke="#AA6FD8"/>
<path d="M15.4999 24.2005C20.8694 24.2005 22.6065 19.0689 22.6776 18.8514L19.9225 17.9509C19.9109 17.9842 18.7901 21.3005 15.4999 21.3005C12.2548 21.3005 11.1208 18.08 11.0759 17.9422L8.32228 18.8514C8.39333 19.0689 10.1305 24.2005 15.4999 24.2005Z" fill="#AA6FD8" stroke="#AA6FD8"/>
</svg>
