<svg width="19" height="31" viewBox="0 0 19 31" fill="none" xmlns="http://www.w3.org/2000/svg">
<path d="M16.15 0H2.85C1.2825 0 0 1.30781 0 2.90625V28.0938C0 29.6922 1.2825 31 2.85 31H16.15C17.7175 31 19 29.6922 19 28.0938V2.90625C19 1.30781 17.7175 0 16.15 0ZM5.7 1.45312H13.3V2.42188H5.7V1.45312ZM9.5 29.0625C8.99609 29.0625 8.51282 28.8584 8.1565 28.495C7.80018 28.1317 7.6 27.6389 7.6 27.125C7.6 26.6111 7.80018 26.1183 8.1565 25.755C8.51282 25.3916 8.99609 25.1875 9.5 25.1875C10.0039 25.1875 10.4872 25.3916 10.8435 25.755C11.1998 26.1183 11.4 26.6111 11.4 27.125C11.4 27.6389 11.1998 28.1317 10.8435 28.495C10.4872 28.8584 10.0039 29.0625 9.5 29.0625ZM17.1 23.25H1.9V3.875H17.1V23.25Z" fill="#AA6FD8"/>
</svg>
