<svg width="31" height="22" viewBox="0 0 31 22" fill="none" xmlns="http://www.w3.org/2000/svg">
<path d="M5.63636 0H31V16.5H5.63636V0ZM18.3182 4.125C19.4393 4.125 20.5145 4.5596 21.3073 5.33318C22.1001 6.10677 22.5455 7.15598 22.5455 8.25C22.5455 9.34402 22.1001 10.3932 21.3073 11.1668C20.5145 11.9404 19.4393 12.375 18.3182 12.375C17.197 12.375 16.1218 11.9404 15.329 11.1668C14.5363 10.3932 14.0909 9.34402 14.0909 8.25C14.0909 7.15598 14.5363 6.10677 15.329 5.33318C16.1218 4.5596 17.197 4.125 18.3182 4.125ZM11.2727 2.75C11.2727 3.47935 10.9758 4.17882 10.4473 4.69454C9.91879 5.21027 9.20197 5.5 8.45455 5.5V11C9.20197 11 9.91879 11.2897 10.4473 11.8055C10.9758 12.3212 11.2727 13.0207 11.2727 13.75H25.3636C25.3636 13.0207 25.6606 12.3212 26.1891 11.8055C26.7176 11.2897 27.4344 11 28.1818 11V5.5C27.4344 5.5 26.7176 5.21027 26.1891 4.69454C25.6606 4.17882 25.3636 3.47935 25.3636 2.75H11.2727ZM0 5.5H2.81818V19.25H25.3636V22H0V5.5Z" fill="#AA6FD8"/>
</svg>
