<svg width="14" height="17" viewBox="0 0 14 17" fill="none" xmlns="http://www.w3.org/2000/svg">
<path d="M9.44162 12.6523H3.9585V14.2994H9.44162V12.6523Z" fill="#AA6FD8"/>
<path d="M9.93203 16.0648H3.46646C3.26425 16.0648 3.09961 15.9305 3.09961 15.7655V13.5796C3.09961 13.4146 3.26425 13.2803 3.46646 13.2803H9.93203C10.1343 13.2803 10.2989 13.4146 10.2989 13.5796V15.767C10.2989 15.9305 10.1343 16.0648 9.93203 16.0648Z" fill="#D9BFED"/>
<path d="M10.3168 15.6311H3.0835V16.4999H10.3168V15.6311Z" fill="#AA6FD8"/>
<path d="M5.97705 15.6312L6.69465 15.0486L7.42299 15.6312H5.97705Z" fill="#AA6FD8"/>
<path d="M10.712 12.6524H2.68775C2.43364 12.6524 2.22605 12.4831 2.22605 12.2757L0.0786133 0.376726C0.0786133 0.169381 0.286199 0 0.540312 0H12.8594C13.1136 0 13.3211 0.169381 13.3211 0.376726L11.1737 12.2757C11.1737 12.4831 10.9661 12.6524 10.712 12.6524Z" fill="#F6EFFB"/>
<path d="M13.0367 2.23261H0.361485L0 0H13.4L13.0367 2.23261Z" fill="#AA6FD8"/>
<path d="M12.6159 4.27979H8.17432C7.79852 4.27979 7.49072 4.49881 7.49072 4.76748V8.96111C7.49072 9.22978 7.79852 9.44881 8.17432 9.44881H11.6711L12.6159 4.27979Z" fill="#AA6FD8"/>
</svg>
