<svg width="13" height="18" viewBox="0 0 13 18" fill="none" xmlns="http://www.w3.org/2000/svg">
<path d="M12.9814 15.6316C12.9479 15.3494 12.8784 15.072 12.7878 14.8033C12.6562 14.4151 12.4787 14.0182 12.2329 13.6866C11.0315 12.0645 9.73687 12.9803 9.73687 12.9803C9.38685 13.0272 9.048 12.4824 9.048 12.4824L7.43443 8.77477L9.54945 0.184888L9.33224 0L6.50104 6.45628L3.57675 0L3.47124 0.212005L5.55896 8.85489L4.30037 11.786C3.83368 12.8867 3.37815 13.0025 3.37815 13.0025C2.94621 12.597 2.1295 12.7129 2.1295 12.7129C1.69631 12.7745 1.26313 13.1578 0.990067 13.4722C0.308642 14.2524 -0.0922682 15.3518 0.0181995 16.386C0.182039 17.9156 1.45304 17.9957 1.45304 17.9957C2.57385 18.0808 3.3223 16.8753 3.68473 15.9854C3.78527 15.7401 3.82002 15.48 3.89077 15.2249C4.04096 14.6838 4.25817 14.1649 4.47538 13.6472C4.85395 12.7425 5.23128 11.8377 5.60985 10.933C5.81465 10.4412 6.02069 9.95066 6.22549 9.45885C6.30741 9.26411 6.77907 9.29492 6.85602 9.48227C6.99256 9.81754 7.12909 10.1516 7.26562 10.4868C7.6355 11.394 8.00538 12.3 8.37526 13.2071C8.64833 13.8764 9.00083 14.5568 9.18329 15.2569C9.30245 15.7142 9.46505 16.1629 9.69219 16.5795C9.89699 16.9567 10.1713 17.4016 10.5312 17.6494C11.2549 18.1473 11.9773 17.9625 11.9773 17.9625C12.969 17.6962 12.9926 16.4797 12.9926 16.4797C12.9913 16.1937 13.0161 15.9139 12.9814 15.6316ZM3.24534 15.9028C2.86926 16.9246 1.98179 17.5409 1.26437 17.2808C0.546955 17.0195 0.270165 15.9805 0.646251 14.9586C1.02234 13.9368 1.9098 13.3205 2.62722 13.5806C3.34464 13.8419 3.62143 14.881 3.24534 15.9028ZM6.4998 8.65644C6.30368 8.65644 6.14357 8.49867 6.14357 8.30269C6.14357 8.10794 6.30244 7.94894 6.4998 7.94894C6.69715 7.94894 6.85602 8.10671 6.85602 8.30269C6.85602 8.49744 6.69715 8.65644 6.4998 8.65644ZM11.77 17.2932C11.0476 17.5409 10.1725 16.9074 9.81507 15.8794C9.4576 14.8514 9.75301 13.8173 10.4754 13.5695C11.1978 13.3218 12.0728 13.9553 12.4303 14.9833C12.7878 16.0113 12.4924 17.0454 11.77 17.2932Z" fill="#AA6FD8"/>
</svg>
