<svg width="23" height="21" viewBox="0 0 23 21" fill="none" xmlns="http://www.w3.org/2000/svg">
<path d="M14.9191 6.54958L15.0389 6.77754L15.2941 6.81234L22.1876 7.75241C22.1878 7.75244 22.188 7.75247 22.1882 7.75251C22.4208 7.78525 22.5185 7.96711 22.4965 8.10107L22.4964 8.10106L22.4955 8.10693C22.4864 8.16668 22.4556 8.22819 22.3991 8.28023C22.399 8.2803 22.3989 8.28038 22.3988 8.28046L17.4112 12.8434L17.2071 13.0301L17.2568 13.3022L18.4354 19.7466L18.4355 19.747C18.4609 19.8852 18.365 20.0667 18.1386 20.1033L18.138 20.1034C18.0507 20.1176 17.9619 20.1036 17.8906 20.068L17.8884 20.0669L11.7213 17.0244L11.5001 16.9153L11.2788 17.0244L5.11167 20.0669L5.11092 20.0673C5.04775 20.0986 4.97426 20.1136 4.89945 20.1086C4.82467 20.1036 4.75545 20.0791 4.69949 20.0409C4.64376 20.003 4.60485 19.9542 4.58276 19.9031L4.12915 20.0994L4.58276 19.9031C4.56083 19.8524 4.55504 19.7989 4.56455 19.7473L4.56468 19.7466L5.74326 13.3022L5.79303 13.0301L5.58891 12.8434L0.600326 8.27959L0.600293 8.27956C0.532919 8.21794 0.501062 8.14079 0.500027 8.06745C0.498996 7.99442 0.528393 7.91732 0.592981 7.8547C0.648432 7.80188 0.723763 7.76432 0.809924 7.75277L0.811054 7.75262L7.70601 6.81234L7.96119 6.77754L8.08102 6.54958L11.1619 0.688714C11.1621 0.688414 11.1623 0.688114 11.1624 0.687815C11.2456 0.533101 11.4738 0.444331 11.6755 0.537787L11.6761 0.538047C11.7514 0.572811 11.8058 0.626921 11.8366 0.685791L11.8369 0.686236L14.9191 6.54958ZM16.4089 18.3774L17.3006 18.8169L17.1217 17.839L16.1912 12.7524L20.1364 9.14491L20.924 8.42473L19.8666 8.2805L14.3863 7.53301L11.9426 2.88624L11.5001 2.04475L11.0575 2.88624L8.61382 7.53301L3.13355 8.2805L2.07658 8.42467L2.8636 9.14479L6.80897 12.7548L5.87842 17.8415L5.69943 18.8199L6.59144 18.3799L11.5002 15.9586L16.4089 18.3774Z" fill="#AA6FD8" stroke="#ADB5BD"/>
</svg>
