<svg width="14" height="19" viewBox="0 0 14 19" fill="none" xmlns="http://www.w3.org/2000/svg">
<path d="M1.66188 3.12H5.98188V18H8.02188V3.12H12.3419V1.2H1.66188V3.12Z" fill="white"/>
<path d="M1.66188 3.12H0.661875V4.12H1.66188V3.12ZM5.98188 3.12H6.98188V2.12H5.98188V3.12ZM5.98188 18H4.98188V19H5.98188V18ZM8.02188 18V19H9.02188V18H8.02188ZM8.02188 3.12V2.12H7.02188V3.12H8.02188ZM12.3419 3.12V4.12H13.3419V3.12H12.3419ZM12.3419 1.2H13.3419V0.199999H12.3419V1.2ZM1.66188 1.2V0.199999H0.661875V1.2H1.66188ZM1.66188 4.12H5.98188V2.12H1.66188V4.12ZM4.98188 3.12V18H6.98188V3.12H4.98188ZM5.98188 19H8.02188V17H5.98188V19ZM9.02188 18V3.12H7.02188V18H9.02188ZM8.02188 4.12H12.3419V2.12H8.02188V4.12ZM13.3419 3.12V1.2H11.3419V3.12H13.3419ZM12.3419 0.199999H1.66188V2.2H12.3419V0.199999ZM0.661875 1.2V3.12H2.66188V1.2H0.661875Z" fill="white"/>
</svg>
