<svg width="28" height="25" viewBox="0 0 28 25" fill="none" xmlns="http://www.w3.org/2000/svg">
<path d="M18.9892 16.56L13.9972 3.36L9.10119 16.56L4.63719 4.2H2.35719L8.95719 21.84L13.9972 8.784L19.0372 21.84L25.6372 4.2H23.3572L18.9892 16.56Z" fill="white"/>
<path d="M18.9892 16.56L18.0538 16.9137L19.021 19.4711L19.932 16.8932L18.9892 16.56ZM13.9972 3.36L14.9325 3.00627L13.9881 0.508953L13.0596 3.01224L13.9972 3.36ZM9.10119 16.56L8.16065 16.8997L9.08869 19.4693L10.0388 16.9078L9.10119 16.56ZM4.63719 4.2L5.57773 3.86031L5.33924 3.2H4.63719V4.2ZM2.35719 4.2V3.2H0.915336L1.4206 4.55042L2.35719 4.2ZM8.95719 21.84L8.0206 22.1904L8.94258 24.6546L9.89009 22.2001L8.95719 21.84ZM13.9972 8.784L14.9301 8.42387L13.9972 6.00721L13.0643 8.42387L13.9972 8.784ZM19.0372 21.84L18.1043 22.2001L19.0518 24.6546L19.9738 22.1904L19.0372 21.84ZM25.6372 4.2L26.5738 4.55042L27.079 3.2H25.6372V4.2ZM23.3572 4.2V3.2H22.65L22.4143 3.8668L23.3572 4.2ZM19.9245 16.2063L14.9325 3.00627L13.0618 3.71373L18.0538 16.9137L19.9245 16.2063ZM13.0596 3.01224L8.1636 16.2122L10.0388 16.9078L14.9348 3.70776L13.0596 3.01224ZM10.0417 16.2203L5.57773 3.86031L3.69665 4.53969L8.16065 16.8997L10.0417 16.2203ZM4.63719 3.2H2.35719V5.2H4.63719V3.2ZM1.4206 4.55042L8.0206 22.1904L9.89378 21.4896L3.29378 3.84957L1.4206 4.55042ZM9.89009 22.2001L14.9301 9.14413L13.0643 8.42387L8.02429 21.4799L9.89009 22.2001ZM13.0643 9.14413L18.1043 22.2001L19.9701 21.4799L14.9301 8.42387L13.0643 9.14413ZM19.9738 22.1904L26.5738 4.55042L24.7006 3.84957L18.1006 21.4896L19.9738 22.1904ZM25.6372 3.2H23.3572V5.2H25.6372V3.2ZM22.4143 3.8668L18.0463 16.2268L19.932 16.8932L24.3 4.5332L22.4143 3.8668Z" fill="white"/>
</svg>
